# File created by Blade
# Date/Time:  Tue Jan 27 19:54:25 2015
# Frame Rate: 120.000 fps
#------------------------------------------------------
:FULLY-SPECIFIED
:DEGREES
1966
root 7.228586 33.148385 -0.393985 -7.916523 -13.498861 -20.028318
Spine 19.058459 6.124187 15.888697
Head -0.385800 -6.806695 5.480842
LeftShoulder -13.393962 -9.095561 29.410215
LeftArm 7.760597 -8.786278 -82.272566
LeftForeArm -35.420776 -0.000000 127.858448
LeftHand 1.641724 -0.000000 -22.762220
LeftHandThumb1 -26.253704 0.000000 33.147579
RightShoulder -16.313137 -14.265239 -20.767334
RightArm 8.579864 -15.263317 82.455288
RightForeArm -18.784943 -0.000000 23.390152
RightHand 17.085173 -0.000000 6.189865
RightHandThumb1 -24.326973 -0.000000 -32.862282
LeftUpLeg 11.516677 9.513286 11.052222
LeftLeg 10.722981 -0.000000 -0.000000
LeftFoot -25.923649 17.247321 -17.131026
LeftToeBase 20.368515 -0.000000 -0.000000
RightUpLeg -77.275741 -20.409299 1.903516
RightLeg 53.151876 -0.000000 -0.000000
RightFoot 36.177869 -14.989992 17.783724
RightToeBase 9.058853 -0.000000 -0.000000
1967
root 7.256084 33.137078 -0.390376 -8.291352 -13.146455 -19.976794
Spine 19.358938 5.739718 15.992059
Head -0.402160 -6.921629 5.334506
LeftShoulder -13.233909 -9.384375 29.377476
LeftArm 7.732613 -8.813979 -82.374564
LeftForeArm -35.100257 -0.000000 127.553408
LeftHand 1.736184 -0.000000 -22.624680
LeftHandThumb1 -26.253704 0.000000 33.147579
RightShoulder -16.281583 -14.261502 -20.757423
RightArm 8.682576 -15.094585 82.309147
RightForeArm -18.785476 -0.000000 23.249872
RightHand 17.152059 -0.000000 6.374908
RightHandThumb1 -24.326973 -0.000000 -32.862282
LeftUpLeg 11.481935 9.451203 11.026179
LeftLeg 11.281654 -0.000000 -0.000000
LeftFoot -26.039513 16.978939 -17.105591
LeftToeBase 20.432580 -0.000000 -0.000000
RightUpLeg -76.708507 -20.633677 0.666652
RightLeg 49.005171 -0.000000 -0.000000
RightFoot 35.879657 -15.414153 17.973874
RightToeBase 8.472751 -0.000000 -0.000000
1968
root 7.286423 33.124703 -0.391154 -8.645382 -12.738589 -19.962889
Spine 19.674971 5.274865 16.149417
Head -0.533632 -7.015808 5.121851
LeftShoulder -13.094570 -9.691904 29.303370
LeftArm 7.689464 -8.900219 -82.464460
LeftForeArm -34.871877 0.000000 127.276528
LeftHand 1.812804 -0.000000 -22.531274
LeftHandThumb1 -26.253704 0.000000 33.147579
RightShoulder -16.252914 -14.143247 -20.791098
RightArm 8.709463 -14.962701 82.157617
RightForeArm -18.895351 0.000000 23.138832
RightHand 17.181000 -0.000000 6.455356
RightHandThumb1 -24.326973 -0.000000 -32.862282
LeftUpLeg 11.374312 9.264430 10.987780
LeftLeg 11.891812 -0.000000 -0.000000
LeftFoot -26.269279 16.769846 -17.220610
LeftToeBase 20.556722 -0.000000 -0.000000
RightUpLeg -76.009095 -20.856778 -0.686598
RightLeg 44.848569 -0.000000 -0.000000
RightFoot 35.337370 -15.933030 18.040695
RightToeBase 7.931741 -0.000000 -0.000000
1969
root 7.309461 33.113164 -0.388958 -8.976669 -12.329785 -19.982813
Spine 19.952680 4.811245 16.312296
Head -0.650132 -7.127723 4.958869
LeftShoulder -12.969639 -9.912931 29.196714
LeftArm 7.730287 -9.031212 -82.502337
LeftForeArm -34.779162 0.000000 127.004655
LeftHand 1.790715 0.000000 -22.540331
LeftHandThumb1 -26.253704 0.000000 33.147579
RightShoulder -16.225079 -14.079382 -20.787652
RightArm 8.789741 -14.893856 81.961321
RightForeArm -18.912200 -0.000000 23.037952
RightHand 17.021334 -0.000000 6.435560
RightHandThumb1 -24.326973 -0.000000 -32.862282
LeftUpLeg 11.270392 9.103906 10.998615
LeftLeg 12.486514 -0.000000 -0.000000
LeftFoot -26.488738 16.551270 -17.278606
LeftToeBase 20.635761 -0.000000 -0.000000
RightUpLeg -75.197167 -21.011190 -2.227243
RightLeg 40.845524 -0.000000 -0.000000
RightFoot 34.564996 -16.299016 17.913153
RightToeBase 7.687855 -0.000000 -0.000000
1970
root 7.333692 33.102145 -0.384873 -9.383539 -11.958605 -19.994396
Spine 20.350394 4.358890 16.477754
Head -0.827741 -7.194353 4.800304
LeftShoulder -12.840257 -10.212156 29.076607
LeftArm 7.725653 -9.208257 -82.522528
LeftForeArm -34.593124 -0.000000 126.819059
LeftHand 1.749430 -0.000000 -22.480916
LeftHandThumb1 -26.253704 0.000000 33.147579
RightShoulder -16.169604 -13.947612 -20.795414
RightArm 8.797282 -14.748844 81.790599
RightForeArm -18.942933 0.000000 23.010204
RightHand 17.081297 0.000000 6.518200
RightHandThumb1 -24.326973 -0.000000 -32.862282
LeftUpLeg 11.296817 8.978432 11.021964
LeftLeg 13.001358 -0.000000 -0.000000
LeftFoot -26.706663 16.324128 -17.403711
LeftToeBase 20.449519 -0.000000 -0.000000
RightUpLeg -74.226758 -21.065247 -3.954739
RightLeg 37.062250 -0.000000 -0.000000
RightFoot 33.434439 -17.035865 17.982362
RightToeBase 7.387641 -0.000000 -0.000000
1971
root 7.358677 33.087420 -0.372875 -9.801730 -11.580713 -19.919699
Spine 20.709656 3.938811 16.526700
Head -0.978551 -7.267615 4.696226
LeftShoulder -12.725398 -10.462568 28.939188
LeftArm 7.792573 -9.340308 -82.479704
LeftForeArm -34.452278 0.000000 126.637489
LeftHand 1.727046 -0.000000 -22.406864
LeftHandThumb1 -26.253704 0.000000 33.147579
RightShoulder -16.118213 -13.809546 -20.791564
RightArm 8.780951 -14.630010 81.639147
RightForeArm -18.888695 -0.000000 22.937031
RightHand 16.983097 -0.000000 6.600443
RightHandThumb1 -24.326973 -0.000000 -32.862282
LeftUpLeg 11.352278 8.846169 10.962324
LeftLeg 13.469879 -0.000000 -0.000000
LeftFoot -26.846423 16.029240 -17.461136
LeftToeBase 20.668236 -0.000000 -0.000000
RightUpLeg -73.337515 -21.100161 -5.820160
RightLeg 33.736752 -0.000000 -0.000000
RightFoot 32.084058 -18.072747 17.900871
RightToeBase 6.472731 -0.000000 -0.000000
1972
root 7.383405 33.068225 -0.356628 -10.136985 -11.119241 -19.852300
Spine 20.899432 3.427804 16.538404
Head -1.036619 -7.357934 4.590785
LeftShoulder -12.673894 -10.630781 28.797867
LeftArm 7.903473 -9.449152 -82.450359
LeftForeArm -34.406050 -0.000000 126.401909
LeftHand 1.736775 -0.000000 -22.574071
LeftHandThumb1 -26.253704 0.000000 33.147579
RightShoulder -16.004473 -13.738261 -20.802049
RightArm 8.787680 -14.547780 81.477756
RightForeArm -18.867514 -0.000000 22.834010
RightHand 16.984948 0.000000 6.285908
RightHandThumb1 -24.326973 -0.000000 -32.862282
LeftUpLeg 11.333936 8.667954 10.879121
LeftLeg 13.895611 -0.000000 -0.000000
LeftFoot -26.969592 15.771763 -17.437287
LeftToeBase 20.689350 -0.000000 -0.000000
RightUpLeg -72.607294 -21.313152 -7.597490
RightLeg 30.859511 -0.000000 -0.000000
RightFoot 30.698253 -19.125532 17.539468
RightToeBase 6.136777 -0.000000 -0.000000
1973
root 7.401203 33.051354 -0.333608 -10.602937 -10.730934 -19.776501
Spine 21.258725 3.006031 16.539161
Head -1.081184 -7.413218 4.545855
LeftShoulder -12.624046 -10.975881 28.724826
LeftArm 7.873188 -9.505626 -82.406487
LeftForeArm -34.259850 -0.000000 126.167652
LeftHand 1.767431 -0.000000 -22.419289
LeftHandThumb1 -26.253704 0.000000 33.147579
RightShoulder -15.924913 -13.685324 -20.800195
RightArm 8.813928 -14.381591 81.375834
RightForeArm -18.810199 -0.000000 22.731031
RightHand 17.032478 0.000000 6.281579
RightHandThumb1 -24.326973 -0.000000 -32.862282
LeftUpLeg 11.511938 8.613191 10.855569
LeftLeg 14.275447 -0.000000 -0.000000
LeftFoot -27.053999 15.473749 -17.350953
LeftToeBase 20.714742 -0.000000 -0.000000
RightUpLeg -71.823490 -21.361799 -9.500313
RightLeg 28.573569 -0.000000 -0.000000
RightFoot 29.121642 -20.169665 16.987728
RightToeBase 6.172447 -0.000000 -0.000000
1974
root 7.420468 33.031556 -0.306228 -11.025581 -10.312936 -19.667427
Spine 21.506419 2.633929 16.497848
Head -1.009573 -7.534554 4.531721
LeftShoulder -12.564943 -11.181343 28.594672
LeftArm 8.024028 -9.534308 -82.382961
LeftForeArm -34.206618 -0.000000 125.897016
LeftHand 1.749851 -0.000000 -22.361644
LeftHandThumb1 -26.253704 0.000000 33.147579
RightShoulder -15.854953 -13.611904 -20.794276
RightArm 8.742388 -14.103898 81.332373
RightForeArm -18.806767 -0.000000 22.594044
RightHand 17.124314 -0.000000 6.164936
RightHandThumb1 -24.326973 -0.000000 -32.862282
LeftUpLeg 11.665511 8.356061 10.703722
LeftLeg 14.606592 -0.000000 -0.000000
LeftFoot -27.207797 15.517367 -17.227768
LeftToeBase 20.650837 -0.000000 -0.000000
RightUpLeg -71.268204 -21.527137 -11.229837
RightLeg 26.850303 -0.000000 -0.000000
RightFoot 27.684635 -20.860296 16.168590
RightToeBase 5.397235 -0.000000 -0.000000
1975
root 7.433832 33.011696 -0.280901 -11.393156 -9.936759 -19.573245
Spine 21.679886 2.329520 16.445748
Head -0.872982 -7.703601 4.555629
LeftShoulder -12.506628 -11.531575 28.539828
LeftArm 7.977788 -9.576296 -82.383640
LeftForeArm -34.315044 -0.000000 125.572427
LeftHand 1.840203 -0.000000 -22.519845
LeftHandThumb1 -26.253704 0.000000 33.147579
RightShoulder -15.758253 -13.613318 -20.796511
RightArm 8.722660 -13.986830 81.267064
RightForeArm -18.807062 -0.000000 22.451982
RightHand 17.058799 -0.000000 6.381643
RightHandThumb1 -24.326973 -0.000000 -32.862282
LeftUpLeg 11.774910 8.213070 10.606966
LeftLeg 14.920917 -0.000000 -0.000000
LeftFoot -27.354716 15.302141 -17.308780
LeftToeBase 20.705208 -0.000000 -0.000000
RightUpLeg -70.933727 -21.735531 -12.701826
RightLeg 25.608716 -0.000000 -0.000000
RightFoot 26.412571 -21.186664 15.238730
RightToeBase 5.744853 -0.000000 -0.000000
